<svg width="185" height="55" viewBox="0 0 185 55" fill="none" xmlns="http://www.w3.org/2000/svg">
<rect width="185" height="55" fill="white"/>
<path d="M34.8434 23.6562H31.1104C31.0423 23.1733 30.9031 22.7443 30.6928 22.3693C30.4826 21.9886 30.2127 21.6648 29.8832 21.3977C29.5536 21.1307 29.1729 20.9261 28.7411 20.7841C28.315 20.642 27.8519 20.571 27.3519 20.571C26.4485 20.571 25.6616 20.7955 24.9911 21.2443C24.3207 21.6875 23.8008 22.3352 23.4315 23.1875C23.0621 24.0341 22.8775 25.0625 22.8775 26.2727C22.8775 27.517 23.0621 28.5625 23.4315 29.4091C23.8065 30.2557 24.3292 30.8949 24.9996 31.3267C25.6701 31.7585 26.4457 31.9744 27.3263 31.9744C27.8207 31.9744 28.2781 31.9091 28.6985 31.7784C29.1246 31.6477 29.5025 31.4574 29.832 31.2074C30.1616 30.9517 30.4343 30.642 30.6502 30.2784C30.8718 29.9148 31.0252 29.5 31.1104 29.0341L34.8434 29.0511C34.7468 29.8523 34.5053 30.625 34.119 31.3693C33.7383 32.108 33.2241 32.7699 32.5764 33.3551C31.9343 33.9347 31.1673 34.3949 30.2752 34.7358C29.3888 35.071 28.386 35.2386 27.2667 35.2386C25.7099 35.2386 24.3178 34.8864 23.0906 34.1818C21.869 33.4773 20.9031 32.4574 20.1928 31.1222C19.4883 29.7869 19.136 28.1705 19.136 26.2727C19.136 24.3693 19.494 22.75 20.2099 21.4148C20.9258 20.0795 21.8974 19.0625 23.1246 18.3636C24.3519 17.6591 25.7326 17.3068 27.2667 17.3068C28.2781 17.3068 29.2156 17.4489 30.0792 17.733C30.9485 18.017 31.7184 18.4318 32.3889 18.9773C33.0593 19.517 33.6048 20.179 34.0252 20.9631C34.4513 21.7472 34.7241 22.6449 34.8434 23.6562ZM40.1701 35H36.2156L42.2411 17.5455H46.9968L53.0139 35H49.0593L44.6871 21.5341H44.5508L40.1701 35ZM39.9229 28.1392H49.2639V31.0199H39.9229V28.1392ZM55.1147 35V17.5455H62.0011C63.3192 17.5455 64.4442 17.7812 65.3761 18.2528C66.3136 18.7187 67.0266 19.3807 67.5153 20.2386C68.0096 21.0909 68.2567 22.0937 68.2567 23.2472C68.2567 24.4062 68.0067 25.4034 67.5067 26.2386C67.0067 27.0682 66.2823 27.7045 65.3335 28.1477C64.3903 28.5909 63.2482 28.8125 61.9073 28.8125H57.2965V25.8466H61.3107C62.0153 25.8466 62.6005 25.75 63.0664 25.5568C63.5323 25.3636 63.8789 25.0739 64.1062 24.6875C64.3391 24.3011 64.4556 23.821 64.4556 23.2472C64.4556 22.6676 64.3391 22.179 64.1062 21.7812C63.8789 21.3835 63.5295 21.0824 63.0579 20.8778C62.592 20.6676 62.0039 20.5625 61.2937 20.5625H58.805V35H55.1147ZM64.5408 27.0568L68.8789 35H64.805L60.5607 27.0568H64.5408ZM82.6069 35H76.4194V17.5455H82.658C84.4137 17.5455 85.9251 17.8949 87.1921 18.5938C88.4592 19.2869 89.4336 20.2841 90.1154 21.5852C90.8029 22.8864 91.1467 24.4432 91.1467 26.2557C91.1467 28.0739 90.8029 29.6364 90.1154 30.9432C89.4336 32.25 88.4535 33.2528 87.1751 33.9517C85.9023 34.6506 84.3796 35 82.6069 35ZM80.1097 31.8381H82.4535C83.5444 31.8381 84.462 31.6449 85.2063 31.2585C85.9563 30.8665 86.5188 30.2614 86.8938 29.4432C87.2745 28.6193 87.4648 27.5568 87.4648 26.2557C87.4648 24.9659 87.2745 23.9119 86.8938 23.0938C86.5188 22.2756 85.9592 21.6733 85.2148 21.2869C84.4705 20.9006 83.5529 20.7074 82.462 20.7074H80.1097V31.8381ZM93.8803 35V17.5455H105.642V20.5881H97.5707V24.7472H105.037V27.7898H97.5707V31.9574H105.676V35H93.8803ZM111.584 35H107.63L113.655 17.5455H118.411L124.428 35H120.473L116.101 21.5341H115.965L111.584 35ZM111.337 28.1392H120.678V31.0199H111.337V28.1392ZM126.529 35V17.5455H130.219V31.9574H137.702V35H126.529ZM140.146 35V17.5455H151.907V20.5881H143.836V24.7472H151.302V27.7898H143.836V31.9574H151.941V35H140.146ZM154.841 35V17.5455H161.728C163.046 17.5455 164.171 17.7812 165.103 18.2528C166.04 18.7187 166.753 19.3807 167.242 20.2386C167.736 21.0909 167.983 22.0937 167.983 23.2472C167.983 24.4062 167.733 25.4034 167.233 26.2386C166.733 27.0682 166.009 27.7045 165.06 28.1477C164.117 28.5909 162.975 28.8125 161.634 28.8125H157.023V25.8466H161.037C161.742 25.8466 162.327 25.75 162.793 25.5568C163.259 25.3636 163.605 25.0739 163.833 24.6875C164.066 24.3011 164.182 23.821 164.182 23.2472C164.182 22.6676 164.066 22.179 163.833 21.7812C163.605 21.3835 163.256 21.0824 162.784 20.8778C162.319 20.6676 161.73 20.5625 161.02 20.5625H158.532V35H154.841ZM164.267 27.0568L168.605 35H164.532L160.287 27.0568H164.267Z" fill="black"/>
<path d="M76.5 44H184.5" stroke="black" stroke-width="3"/>
<line y1="10.5" x2="70" y2="10.5" stroke="black" stroke-width="3"/>
</svg>
